<mxfile host="app.diagrams.net" modified="2023-05-04T16:18:52.272Z" agent="Mozilla/5.0 (Windows NT 10.0; Win64; x64) AppleWebKit/537.36 (KHTML, like Gecko) Chrome/111.0.0.0 Safari/537.36 OPR/97.0.0.0 (Edition std-1)" etag="bt2p5eDUcpyVF_YX1yvh" version="21.2.7" type="device">
  <diagram name="Página-1" id="eraFyOt5bU_ge2Rh74fk">
    <mxGraphModel dx="2243" dy="1077" grid="1" gridSize="10" guides="1" tooltips="1" connect="1" arrows="1" fold="1" page="1" pageScale="1" pageWidth="827" pageHeight="1169" math="0" shadow="0">
      <root>
        <mxCell id="0" />
        <mxCell id="1" parent="0" />
        <mxCell id="7XeHf_dn--d99jpylyqT-67" style="edgeStyle=orthogonalEdgeStyle;rounded=0;orthogonalLoop=1;jettySize=auto;html=1;entryX=0;entryY=0.5;entryDx=0;entryDy=0;" edge="1" parent="1" source="mF3q0Rq8tJbmtWF1qKPC-3" target="7XeHf_dn--d99jpylyqT-34">
          <mxGeometry relative="1" as="geometry" />
        </mxCell>
        <mxCell id="mF3q0Rq8tJbmtWF1qKPC-3" value="Inicio" style="ellipse;whiteSpace=wrap;html=1;" parent="1" vertex="1">
          <mxGeometry x="-390" y="490" width="70" height="50" as="geometry" />
        </mxCell>
        <mxCell id="mF3q0Rq8tJbmtWF1qKPC-17" style="edgeStyle=orthogonalEdgeStyle;rounded=0;orthogonalLoop=1;jettySize=auto;html=1;entryX=0;entryY=0.5;entryDx=0;entryDy=0;" parent="1" source="mF3q0Rq8tJbmtWF1qKPC-5" target="mF3q0Rq8tJbmtWF1qKPC-21" edge="1">
          <mxGeometry relative="1" as="geometry">
            <mxPoint x="210" y="470" as="targetPoint" />
            <Array as="points">
              <mxPoint x="90" y="410" />
              <mxPoint x="90" y="300" />
            </Array>
          </mxGeometry>
        </mxCell>
        <mxCell id="7XeHf_dn--d99jpylyqT-50" style="edgeStyle=orthogonalEdgeStyle;rounded=0;orthogonalLoop=1;jettySize=auto;html=1;" edge="1" parent="1" source="mF3q0Rq8tJbmtWF1qKPC-5" target="7XeHf_dn--d99jpylyqT-10">
          <mxGeometry relative="1" as="geometry">
            <Array as="points">
              <mxPoint x="90" y="410" />
              <mxPoint x="90" y="520" />
            </Array>
          </mxGeometry>
        </mxCell>
        <mxCell id="mF3q0Rq8tJbmtWF1qKPC-5" value="usuário&lt;br&gt;possui conta?" style="rhombus;whiteSpace=wrap;html=1;" parent="1" vertex="1">
          <mxGeometry x="-50" y="370" width="120" height="80" as="geometry" />
        </mxCell>
        <mxCell id="mF3q0Rq8tJbmtWF1qKPC-6" style="edgeStyle=orthogonalEdgeStyle;rounded=0;orthogonalLoop=1;jettySize=auto;html=1;exitX=0.5;exitY=1;exitDx=0;exitDy=0;" parent="1" edge="1">
          <mxGeometry relative="1" as="geometry">
            <mxPoint x="-190" y="570" as="sourcePoint" />
            <mxPoint x="-190" y="570" as="targetPoint" />
          </mxGeometry>
        </mxCell>
        <mxCell id="mF3q0Rq8tJbmtWF1qKPC-19" value="Não" style="text;html=1;strokeColor=none;fillColor=none;align=center;verticalAlign=middle;whiteSpace=wrap;rounded=0;" parent="1" vertex="1">
          <mxGeometry x="90" y="300" width="60" height="30" as="geometry" />
        </mxCell>
        <mxCell id="TnF8aTyG_mfoWACl2fjc-5" style="edgeStyle=orthogonalEdgeStyle;rounded=0;orthogonalLoop=1;jettySize=auto;html=1;entryX=0;entryY=0.5;entryDx=0;entryDy=0;" parent="1" source="mF3q0Rq8tJbmtWF1qKPC-21" target="TnF8aTyG_mfoWACl2fjc-4" edge="1">
          <mxGeometry relative="1" as="geometry">
            <Array as="points">
              <mxPoint x="340" y="300" />
              <mxPoint x="340" y="240" />
            </Array>
          </mxGeometry>
        </mxCell>
        <mxCell id="TnF8aTyG_mfoWACl2fjc-14" style="edgeStyle=orthogonalEdgeStyle;rounded=0;orthogonalLoop=1;jettySize=auto;html=1;entryX=0;entryY=0.5;entryDx=0;entryDy=0;" parent="1" source="mF3q0Rq8tJbmtWF1qKPC-21" target="TnF8aTyG_mfoWACl2fjc-12" edge="1">
          <mxGeometry relative="1" as="geometry">
            <Array as="points">
              <mxPoint x="340" y="300" />
              <mxPoint x="340" y="360" />
              <mxPoint x="400" y="360" />
            </Array>
          </mxGeometry>
        </mxCell>
        <mxCell id="mF3q0Rq8tJbmtWF1qKPC-21" value="Deseja criar conta?" style="rhombus;whiteSpace=wrap;html=1;" parent="1" vertex="1">
          <mxGeometry x="150" y="260" width="120" height="80" as="geometry" />
        </mxCell>
        <mxCell id="7XeHf_dn--d99jpylyqT-9" style="edgeStyle=orthogonalEdgeStyle;rounded=0;orthogonalLoop=1;jettySize=auto;html=1;entryX=0.5;entryY=0;entryDx=0;entryDy=0;" edge="1" parent="1" source="TnF8aTyG_mfoWACl2fjc-4" target="7XeHf_dn--d99jpylyqT-7">
          <mxGeometry relative="1" as="geometry" />
        </mxCell>
        <mxCell id="TnF8aTyG_mfoWACl2fjc-4" value="Entrar como visitante" style="rounded=0;whiteSpace=wrap;html=1;" parent="1" vertex="1">
          <mxGeometry x="400" y="210" width="120" height="60" as="geometry" />
        </mxCell>
        <mxCell id="TnF8aTyG_mfoWACl2fjc-6" value="Não" style="text;html=1;strokeColor=none;fillColor=none;align=center;verticalAlign=middle;whiteSpace=wrap;rounded=0;" parent="1" vertex="1">
          <mxGeometry x="340" y="240" width="60" height="30" as="geometry" />
        </mxCell>
        <mxCell id="7XeHf_dn--d99jpylyqT-5" style="edgeStyle=orthogonalEdgeStyle;rounded=0;orthogonalLoop=1;jettySize=auto;html=1;entryX=0.5;entryY=0;entryDx=0;entryDy=0;" edge="1" parent="1" source="TnF8aTyG_mfoWACl2fjc-12" target="7XeHf_dn--d99jpylyqT-1">
          <mxGeometry relative="1" as="geometry" />
        </mxCell>
        <mxCell id="TnF8aTyG_mfoWACl2fjc-12" value="Tela de registro" style="rounded=0;whiteSpace=wrap;html=1;" parent="1" vertex="1">
          <mxGeometry x="400" y="330" width="120" height="60" as="geometry" />
        </mxCell>
        <mxCell id="TnF8aTyG_mfoWACl2fjc-15" value="Sim" style="text;html=1;strokeColor=none;fillColor=none;align=center;verticalAlign=middle;whiteSpace=wrap;rounded=0;" parent="1" vertex="1">
          <mxGeometry x="340" y="330" width="60" height="30" as="geometry" />
        </mxCell>
        <mxCell id="7XeHf_dn--d99jpylyqT-19" style="edgeStyle=orthogonalEdgeStyle;rounded=0;orthogonalLoop=1;jettySize=auto;html=1;entryX=0;entryY=0.5;entryDx=0;entryDy=0;" edge="1" parent="1" source="7XeHf_dn--d99jpylyqT-1" target="7XeHf_dn--d99jpylyqT-7">
          <mxGeometry relative="1" as="geometry" />
        </mxCell>
        <mxCell id="7XeHf_dn--d99jpylyqT-1" value="Tela de login" style="rounded=0;whiteSpace=wrap;html=1;" vertex="1" parent="1">
          <mxGeometry x="400" y="430" width="120" height="60" as="geometry" />
        </mxCell>
        <mxCell id="7XeHf_dn--d99jpylyqT-7" value="Tela home" style="rounded=0;whiteSpace=wrap;html=1;" vertex="1" parent="1">
          <mxGeometry x="590" y="430" width="120" height="60" as="geometry" />
        </mxCell>
        <mxCell id="7XeHf_dn--d99jpylyqT-13" style="edgeStyle=orthogonalEdgeStyle;rounded=0;orthogonalLoop=1;jettySize=auto;html=1;entryX=0;entryY=0.5;entryDx=0;entryDy=0;" edge="1" parent="1" source="7XeHf_dn--d99jpylyqT-10" target="7XeHf_dn--d99jpylyqT-1">
          <mxGeometry relative="1" as="geometry" />
        </mxCell>
        <mxCell id="7XeHf_dn--d99jpylyqT-56" style="edgeStyle=orthogonalEdgeStyle;rounded=0;orthogonalLoop=1;jettySize=auto;html=1;entryX=0;entryY=0.5;entryDx=0;entryDy=0;" edge="1" parent="1" source="7XeHf_dn--d99jpylyqT-10" target="7XeHf_dn--d99jpylyqT-24">
          <mxGeometry relative="1" as="geometry" />
        </mxCell>
        <mxCell id="7XeHf_dn--d99jpylyqT-10" value="está logado?" style="rhombus;whiteSpace=wrap;html=1;" vertex="1" parent="1">
          <mxGeometry x="150" y="480" width="120" height="80" as="geometry" />
        </mxCell>
        <mxCell id="7XeHf_dn--d99jpylyqT-14" value="Não" style="text;html=1;strokeColor=none;fillColor=none;align=center;verticalAlign=middle;whiteSpace=wrap;rounded=0;" vertex="1" parent="1">
          <mxGeometry x="340" y="460" width="60" height="30" as="geometry" />
        </mxCell>
        <mxCell id="7XeHf_dn--d99jpylyqT-21" value="Sim" style="text;html=1;strokeColor=none;fillColor=none;align=center;verticalAlign=middle;whiteSpace=wrap;rounded=0;" vertex="1" parent="1">
          <mxGeometry x="340" y="555" width="60" height="30" as="geometry" />
        </mxCell>
        <mxCell id="7XeHf_dn--d99jpylyqT-22" value="Sim" style="text;html=1;strokeColor=none;fillColor=none;align=center;verticalAlign=middle;whiteSpace=wrap;rounded=0;" vertex="1" parent="1">
          <mxGeometry x="90" y="490" width="60" height="30" as="geometry" />
        </mxCell>
        <mxCell id="7XeHf_dn--d99jpylyqT-26" style="edgeStyle=orthogonalEdgeStyle;rounded=0;orthogonalLoop=1;jettySize=auto;html=1;entryX=0.5;entryY=1;entryDx=0;entryDy=0;" edge="1" parent="1" source="7XeHf_dn--d99jpylyqT-24" target="7XeHf_dn--d99jpylyqT-7">
          <mxGeometry relative="1" as="geometry" />
        </mxCell>
        <mxCell id="7XeHf_dn--d99jpylyqT-60" style="edgeStyle=orthogonalEdgeStyle;rounded=0;orthogonalLoop=1;jettySize=auto;html=1;" edge="1" parent="1" source="7XeHf_dn--d99jpylyqT-24" target="7XeHf_dn--d99jpylyqT-30">
          <mxGeometry relative="1" as="geometry" />
        </mxCell>
        <mxCell id="7XeHf_dn--d99jpylyqT-24" value="deseja sair?" style="rhombus;whiteSpace=wrap;html=1;" vertex="1" parent="1">
          <mxGeometry x="400" y="545" width="120" height="80" as="geometry" />
        </mxCell>
        <mxCell id="7XeHf_dn--d99jpylyqT-27" value="Não" style="text;html=1;strokeColor=none;fillColor=none;align=center;verticalAlign=middle;whiteSpace=wrap;rounded=0;" vertex="1" parent="1">
          <mxGeometry x="590" y="490" width="60" height="30" as="geometry" />
        </mxCell>
        <mxCell id="7XeHf_dn--d99jpylyqT-47" style="edgeStyle=orthogonalEdgeStyle;rounded=0;orthogonalLoop=1;jettySize=auto;html=1;entryX=0.5;entryY=1;entryDx=0;entryDy=0;" edge="1" parent="1" source="7XeHf_dn--d99jpylyqT-30" target="mF3q0Rq8tJbmtWF1qKPC-3">
          <mxGeometry relative="1" as="geometry">
            <mxPoint x="-190" y="570" as="targetPoint" />
          </mxGeometry>
        </mxCell>
        <mxCell id="7XeHf_dn--d99jpylyqT-30" value="Sair" style="rounded=0;whiteSpace=wrap;html=1;" vertex="1" parent="1">
          <mxGeometry x="590" y="680" width="120" height="60" as="geometry" />
        </mxCell>
        <mxCell id="7XeHf_dn--d99jpylyqT-66" style="edgeStyle=orthogonalEdgeStyle;rounded=0;orthogonalLoop=1;jettySize=auto;html=1;entryX=0;entryY=0.5;entryDx=0;entryDy=0;" edge="1" parent="1" source="7XeHf_dn--d99jpylyqT-34" target="mF3q0Rq8tJbmtWF1qKPC-5">
          <mxGeometry relative="1" as="geometry">
            <Array as="points">
              <mxPoint x="-110" y="515" />
              <mxPoint x="-110" y="410" />
            </Array>
          </mxGeometry>
        </mxCell>
        <mxCell id="7XeHf_dn--d99jpylyqT-71" style="edgeStyle=orthogonalEdgeStyle;rounded=0;orthogonalLoop=1;jettySize=auto;html=1;entryX=0;entryY=0.5;entryDx=0;entryDy=0;" edge="1" parent="1" source="7XeHf_dn--d99jpylyqT-34" target="7XeHf_dn--d99jpylyqT-36">
          <mxGeometry relative="1" as="geometry">
            <Array as="points">
              <mxPoint x="-110" y="515" />
              <mxPoint x="-110" y="620" />
            </Array>
          </mxGeometry>
        </mxCell>
        <mxCell id="7XeHf_dn--d99jpylyqT-34" value="Primeira vez no aplicativo?" style="rhombus;whiteSpace=wrap;html=1;" vertex="1" parent="1">
          <mxGeometry x="-270" y="475" width="120" height="80" as="geometry" />
        </mxCell>
        <mxCell id="7XeHf_dn--d99jpylyqT-36" value="Onboarding" style="rounded=0;whiteSpace=wrap;html=1;" vertex="1" parent="1">
          <mxGeometry x="-50" y="590" width="120" height="60" as="geometry" />
        </mxCell>
        <mxCell id="7XeHf_dn--d99jpylyqT-40" value="Não" style="text;html=1;strokeColor=none;fillColor=none;align=center;verticalAlign=middle;whiteSpace=wrap;rounded=0;" vertex="1" parent="1">
          <mxGeometry x="-110" y="410" width="60" height="30" as="geometry" />
        </mxCell>
        <mxCell id="7XeHf_dn--d99jpylyqT-58" value="Sim" style="text;html=1;strokeColor=none;fillColor=none;align=center;verticalAlign=middle;whiteSpace=wrap;rounded=0;" vertex="1" parent="1">
          <mxGeometry x="590" y="650" width="60" height="30" as="geometry" />
        </mxCell>
        <mxCell id="7XeHf_dn--d99jpylyqT-64" value="Sim" style="text;html=1;strokeColor=none;fillColor=none;align=center;verticalAlign=middle;whiteSpace=wrap;rounded=0;" vertex="1" parent="1">
          <mxGeometry x="-110" y="590" width="60" height="30" as="geometry" />
        </mxCell>
      </root>
    </mxGraphModel>
  </diagram>
</mxfile>
